<?xml version="1.0" standalone="no"?>
<!DOCTYPE svg PUBLIC "-//W3C//DTD SVG 20010904//EN"
 "http://www.w3.org/TR/2001/REC-SVG-20010904/DTD/svg10.dtd">
<svg version="1.0" xmlns="http://www.w3.org/2000/svg"
 width="622.000000pt" height="700.000000pt" viewBox="0 0 622.000000 700.000000"
 preserveAspectRatio="xMidYMid meet">

<g transform="translate(0.000000,700.000000) scale(0.100000,-0.100000)"
fill="#000000" stroke="none">
<path d="M6035 5192 c-55 -32 -158 -92 -230 -134 -208 -121 -466 -269 -515
-296 -25 -14 -49 -28 -55 -32 -16 -12 -276 -160 -282 -160 -2 0 -19 -11 -36
-24 -35 -27 -817 -480 -945 -548 -44 -24 -134 -74 -199 -112 -118 -69 -212
-123 -268 -156 -16 -9 -122 -70 -235 -135 -403 -232 -606 -348 -640 -369 -19
-12 -51 -30 -71 -41 -159 -88 -332 -192 -336 -202 -5 -14 37 -78 107 -162 111
-134 333 -273 510 -320 355 -95 741 8 999 267 42 42 97 106 121 142 24 36 45
67 47 70 2 2 12 -1 22 -7 17 -10 301 -175 566 -328 259 -149 300 -174 303
-185 2 -6 -22 -50 -54 -98 -225 -339 -552 -613 -916 -767 -929 -394 -1998 -75
-2546 760 -36 55 -67 102 -69 105 -2 2 -13 -2 -25 -9 -12 -7 -42 -25 -67 -39
-25 -14 -109 -62 -186 -107 -77 -45 -237 -137 -355 -205 -118 -68 -267 -154
-330 -190 -63 -37 -133 -78 -155 -90 -38 -21 -106 -61 -113 -66 -8 -5 59 -91
105 -136 26 -26 113 -85 193 -131 80 -46 406 -235 725 -419 319 -184 847 -489
1174 -678 333 -192 621 -352 655 -364 86 -28 266 -28 352 0 49 17 874 489
2588 1480 143 84 225 164 280 276 70 144 66 28 66 1718 0 1345 -2 1533 -15
1585 -14 54 -59 165 -67 165 -2 0 -48 -27 -103 -58z m-1077 -1459 l3 -112 112
-3 112 -3 0 -115 0 -115 -112 -3 -112 -3 -3 -112 -3 -112 -117 -3 -118 -3 0
116 0 115 -115 0 -115 0 0 120 0 120 115 0 115 0 0 115 0 116 118 -3 117 -3 3
-112z m862 2 l0 -115 115 0 115 0 0 -120 0 -120 -115 0 -115 0 0 -115 0 -116
-117 3 -118 3 -3 112 -3 112 -112 3 -112 3 0 115 0 115 113 3 112 3 0 108 c0
59 3 111 7 114 3 4 57 7 120 7 l113 0 0 -115z"/>
</g>
</svg>
